#!OML:ASF F:\VICON\USERDATA\INSTALL\rory3\rory3.ASF
:FULLY-SPECIFIED
:DEGREES
135
root 1.5194420043440977 17.921067037594597 55.35832167578987 -3.155342614343138 0.12770636315664963 0.18922314405938945
lfemur 11.841928382298827 -3.9317573257322262 -24.251215637449672
ltibia 25.12838320331793
lfoot -5.058276142033608 -6.302409507326395
ltoes -9.425508709599175
rfemur -23.500390638128223 -0.19860558835545383 23.309971309658593
rtibia 39.64446079106515
rfoot -8.002622701900071 -5.447631561088086
rtoes -0.795956489278483
lowerback nan -2.142418283202765 -2.817104998757239
upperback -0.39221014635104806 -3.02414414132099 1.7896769086653885
thorax -5.849674299353736 -1.4440223456446644 4.264029601024876
lowerneck -16.70563784386055 -3.2432368628649004 -1.8896790530739835
upperneck 22.016347948004256 -4.282581957599718 1.582029211600406
head 9.914389604715725 -1.9921420094778457 0.34507025386637324
lclavicle -2.570397386470706e-15 -2.7661643416948333e-15
lhumerus -28.102035522681533 0.6593677765287018 81.552990325599
lradius 24.635962795259147
lwrist 9.546703097685795
lhand -29.207127081772658 19.02994632476048
lfingers nan
lthumb -2.5015195671450905 48.971799470352515
rclavicle -2.5382250076251267e-15 -2.7495316860671608e-15
rhumerus -30.87261479106125 -19.837889071419426 -77.0363872282963
rradius 31.401281706548126
rwrist 2.0518257858150615
rhand -18.010286414850846 nan
rfingers nan
rthumb 8.793914258002882 -7.2166983858998375
136
root 1.5427212235181054 17.92429938773422 56.48226737502544 -3.094545102193886 0.14174075998206598 0.16866988504349667
lfemur 11.5023325148461 -3.8528363359866664 -23.796264049734425
ltibia 28.384936874706263
lfoot -5.344283449993015 -5.356941796339958
ltoes -8.858154359099963
rfemur -22.707824254892174 -0.33489452397295727 23.539063174186477
rtibia 36.58613658488723
rfoot -8.332218157929471 -6.247801391121718
rtoes -0.9215145477284499
lowerback nan -2.22999223889107 -2.7815282810104653
upperback -0.3836486754622028 -3.127385428191753 1.8607223998792288
thorax -5.8145455735618246 -1.490616053717656 4.323351850409995
lowerneck -16.683640087835457 -3.1910093852626145 -1.958072521673817
upperneck 22.11294464082033 -4.171910973956063 1.437843544418916
head 9.935418187652497 -1.9588878307519433 0.3191561513495423
lclavicle -2.568541309143796e-15 -2.764738000253447e-15
lhumerus -28.357723061427933 0.9054265473894199 81.58995295250361
lradius 24.359141462351314
lwrist 9.698974049273424
lhand -29.23160248953926 18.963265085113736
lfingers nan
lthumb -2.57850760468553 48.73518218865183
rclavicle -2.540293984101597e-15 -2.7505114760894796e-15
rhumerus -31.071545080037072 -20.108684057010667 -77.10935479261026
rradius 31.360544161152173
rwrist 2.021428596860531
rhand -18.015182537845813 nan
rfingers nan
rthumb 8.83894263133468 -7.119585842718882
137
root 1.5689560553239397 17.93185184269044 57.38329427165736 -3.0090903758643894 0.11142594307533166 -0.20188575178847268
lfemur 10.55602408651488 -3.6554152563454503 -22.906201078525523
ltibia 32.442005389012394
lfoot -5.276388681991438 -4.779695306906138
ltoes -9.043474212959758
rfemur -21.613520602913994 -0.32232496482328665 24.16201673339997
rtibia 34.09161835374415
rfoot -8.716671100630052 -7.385943465097885
rtoes -0.7237923119218768
lowerback nan -2.2701813288846924 -2.4770919666280786
upperback -0.3762959377552362 -3.1578876862779044 1.9406053113419521
thorax -5.7943197270480145 -1.5010848758276856 4.333307145708828
lowerneck -16.678832534947112 -3.1663295760138404 -1.9903015717027597
upperneck 22.130126410637754 -4.1140188449534385 1.3220138076407317
head 9.92936140649411 -1.944349419375226 0.29063910650732583
lclavicle -2.566696835434983e-15 -2.763547009012036e-15
lhumerus -28.59378113445986 1.28255728890377 81.66282133502649
lradius 24.10183830037676
lwrist 9.754805715558218
lhand -29.261827065334824 18.89129684626776
lfingers nan
lthumb -2.552697333288008 48.79174082114825
rclavicle -2.5420446855685046e-15 -2.751479643723223e-15
rhumerus -31.385992715378507 -20.476610855112927 -77.22480512887488
rradius 31.32222920300749
rwrist 2.020338008314476
rhand -18.020545193461057 nan
rfingers nan
rthumb 8.783103880970268 -7.239443140258868
138
root 1.5770127258470321 17.933408967030136 57.23272766048382 -2.991251104527771 -0.08526573750628799 -0.9743841649482541
lfemur 9.05244118209538 -3.275418724359316 -21.49444689568025
ltibia 37.094831532581786
lfoot -5.523298164996142 -3.3941014154152125
ltoes -8.996082111608215
rfemur -20.491051913656463 -0.013388216396064578 25.136171723702883
rtibia 32.34837282243514
rfoot -9.187246641583801 -8.543161322365677
rtoes -0.06567035796582799
lowerback nan -2.228868429378571 -1.9152173475564436
upperback -0.37747205832307873 -3.0759673788086954 2.0379561021856016
thorax -5.802593918748758 -1.4651870274497805 4.261285066918622
lowerneck -16.692935753069605 -3.1632175786184833 -1.9778354870092112
upperneck 22.08057660732505 -4.09925799781124 1.2358014571231812
head 9.900009930460788 -1.9445390551538553 0.2622099819779868
lclavicle -2.5651641999309633e-15 -2.7627211897753315e-15
lhumerus -28.810833875779718 1.7168827516597052 81.76993859267478
lradius 23.86014994920842
lwrist 9.846580910481036
lhand -29.328471402010297 18.829575087338654
lfingers nan
lthumb -2.6653930884297026 48.61930203731917
rclavicle -2.5434063027214103e-15 -2.752365313867671e-15
rhumerus -31.722585742742684 -20.82708012953842 -77.2916995558273
rradius 31.300539747746097
rwrist 2.036541293837606
rhand -18.024265807302925 nan
rfingers nan
rthumb 8.814715414347901 -7.17323808891323
139
root 1.5667738552823904 17.922272548728106 56.21084371917036 -3.11392546329972 -0.4155957217237717 -1.929867586443791
lfemur 7.151489941754733 -2.717710455898849 -19.700700510254997
ltibia 41.968658270937944
lfoot -6.015763231008817 -1.9781436012445743
ltoes -10.403923160363924
rfemur -19.42351611231279 0.5468888238705765 26.27472497307682
rtibia 31.463749348068063
rfoot -9.780053867777847 -9.435686536296664
rtoes 0.9455270426357558
lowerback nan -2.071588420416179 -1.2022852271336952
upperback -0.3718610318905338 -2.814135836628605 2.146054919543025
thorax -5.849757592156073 -1.3560385376490542 4.086651036518655
lowerneck -16.728386835685136 -3.1785928163786115 -1.9171792495168174
upperneck 21.982894679061108 -4.1217412094689605 1.1742589404932358
head 9.854269878277952 -1.9573086233965413 0.23256254136556156
lclavicle -2.5641004309755716e-15 -2.7624331548148978e-15
lhumerus -29.017025474382006 2.1101014090295593 81.89926820409079
lradius 23.635822821294134
lwrist 10.084043796510347
lhand -29.41552090078269 18.839672783145126
lfingers nan
lthumb -2.690573134607937 48.80891112185568
rclavicle -2.5442053947064637e-15 -2.7531241465516374e-15
rhumerus -32.01259323695099 -21.048000026488292 -77.25480992146949
rradius 31.30502504620341
rwrist 2.052769296702258
rhand -18.026006548807004 nan
rfingers nan
rthumb 8.787780879851718 -7.235291214400643
140
root 1.541401610381244 17.905012656744123 55.09333002570275 -3.2238231048275194 -0.6511669387551344 -3.0247596043507774
lfemur 4.713414572275399 -2.091725456987552 -17.630551389253494
ltibia 46.80902836914452
lfoot -5.543209564516054 -0.27263976161710435
ltoes -12.055205055993296
rfemur -18.311915690175127 1.156199768491736 27.518299632296944
rtibia 31.183740270644595
rfoot -10.441116068700111 -10.089321840004851
rtoes 1.8086778526475682
lowerback nan -1.8476457187189241 -0.3348870515125051
upperback -0.36618302221326304 -2.4223475019174847 2.2671637169486183
thorax -5.934507536167074 -1.1869286326029336 3.811216977251034
lowerneck -16.789525193670872 -3.2109026050490743 -1.8154039856062996
upperneck 21.852381829695965 -4.178495230979849 1.1319956592867104
head 9.798726456070574 -1.9816978355806905 0.19969530077673436
lclavicle -2.5634630045832206e-15 -2.7627262953384053e-15
lhumerus -29.25359741052598 2.3091310527751023 82.0081971009396
lradius 23.448871239371247
lwrist 10.38443342495089
lhand -29.512499483745618 18.822140302196967
lfingers nan
lthumb -2.8102222466315485 48.771625468946915
rclavicle -2.544207310631899e-15 -2.7536605707118477e-15
rhumerus -32.258629483188045 -21.159700414862286 -77.14041422482966
rradius 31.331088991236815
rwrist 2.0609874849119683
rhand -18.02773209955043 nan
rfingers nan
rthumb 8.805728126818577 -7.196365359675501
